<svg id="svg" version="1.1" xmlns="http://www.w3.org/2000/svg" xmlns:xlink="http://www.w3.org/1999/xlink" width="400" height="400" viewBox="0, 0, 400,400"><g id="svgg"><path id="path0" d="M153.323 85.899 C 155.920 85.969,160.060 85.968,162.523 85.898 C 164.985 85.828,162.860 85.771,157.800 85.772 C 152.740 85.772,150.725 85.829,153.323 85.899 M166.000 172.380 C 160.376 172.856,151.720 174.811,148.200 176.401 C 130.353 184.463,119.953 193.660,112.416 208.050 L 110.400 211.900 114.534 212.543 C 121.975 213.702,131.770 213.894,130.077 212.848 C 129.771 212.659,130.367 211.440,131.871 209.182 C 151.584 179.570,200.321 181.276,215.240 212.100 L 216.159 214.000 226.880 214.000 C 234.631 214.000,237.600 213.874,237.600 213.545 C 237.600 212.547,233.139 203.963,230.867 200.587 C 217.337 180.491,193.361 170.065,166.000 172.380 M82.523 187.499 C 85.120 187.569,89.260 187.568,91.723 187.498 C 94.185 187.428,92.060 187.371,87.000 187.372 C 81.940 187.372,79.925 187.429,82.523 187.499 M87.200 217.325 C 87.200 217.394,87.785 217.979,88.500 218.625 L 89.800 219.800 88.625 218.500 C 87.530 217.288,87.200 217.016,87.200 217.325 M104.750 231.354 C 100.972 256.390,109.573 281.749,127.127 297.327 C 157.217 324.029,209.255 318.467,230.736 286.253 C 233.345 282.340,237.600 274.256,237.600 273.211 C 237.600 272.940,233.954 272.800,226.880 272.800 L 216.159 272.800 215.240 274.700 C 200.367 305.429,151.772 307.095,132.012 277.554 C 123.947 265.496,120.493 247.940,123.043 231.963 L 123.273 230.526 118.933 230.278 C 114.641 230.033,110.738 229.368,107.150 228.273 L 105.300 227.709 104.750 231.354 " stroke="none" fill="#94acc4" fill-rule="evenodd"></path><path id="path1" d="M166.993 128.800 C 166.993 152.670,167.041 162.435,167.100 150.500 C 167.159 138.565,167.159 119.035,167.100 107.100 C 167.041 95.165,166.993 104.930,166.993 128.800 M217.891 137.089 C 218.601 137.177,219.861 137.179,220.691 137.092 C 221.521 137.005,220.940 136.933,219.400 136.931 C 217.860 136.929,217.181 137.000,217.891 137.089 M190.075 137.495 C 192.279 137.634,192.365 137.683,192.815 139.046 C 193.071 139.820,193.362 140.371,193.463 140.270 C 194.531 139.202,192.301 137.205,190.120 137.276 L 187.800 137.351 190.075 137.495 M237.380 151.200 C 237.380 159.010,237.434 162.205,237.499 158.300 C 237.565 154.395,237.565 148.005,237.499 144.100 C 237.434 140.195,237.380 143.390,237.380 151.200 M247.748 142.500 C 245.145 145.415,243.323 147.556,243.699 147.259 C 244.567 146.570,252.924 137.200,252.669 137.200 C 252.565 137.200,250.350 139.585,247.748 142.500 M255.422 139.175 L 253.844 141.000 255.603 139.314 C 256.570 138.386,257.280 137.565,257.180 137.488 C 257.081 137.412,256.290 138.171,255.422 139.175 M212.700 138.229 C 211.149 139.070,211.325 139.361,212.900 138.559 C 214.408 137.793,214.675 137.594,214.167 137.616 C 213.965 137.625,213.305 137.901,212.700 138.229 M209.200 141.000 C 208.228 141.990,207.523 142.800,207.633 142.800 C 207.743 142.800,208.628 141.990,209.600 141.000 C 210.572 140.010,211.277 139.200,211.167 139.200 C 211.057 139.200,210.172 140.010,209.200 141.000 M229.000 140.800 C 229.859 141.680,230.652 142.400,230.762 142.400 C 230.872 142.400,230.259 141.680,229.400 140.800 C 228.541 139.920,227.748 139.200,227.638 139.200 C 227.528 139.200,228.141 139.920,229.000 140.800 M218.300 140.282 C 218.795 140.378,219.605 140.378,220.100 140.282 C 220.595 140.187,220.190 140.109,219.200 140.109 C 218.210 140.109,217.805 140.187,218.300 140.282 M224.200 141.457 C 226.237 143.264,226.987 143.791,226.202 142.863 C 225.766 142.348,225.047 141.741,224.604 141.514 C 224.162 141.287,223.980 141.262,224.200 141.457 M250.000 145.200 C 247.972 147.400,246.402 149.200,246.512 149.200 C 246.622 149.200,248.372 147.400,250.400 145.200 C 252.428 143.000,253.998 141.200,253.888 141.200 C 253.778 141.200,252.028 143.000,250.000 145.200 M190.014 142.220 C 190.022 142.429,190.299 143.050,190.631 143.600 L 191.233 144.600 190.972 143.600 C 190.699 142.557,189.989 141.533,190.014 142.220 M194.229 142.800 C 194.376 143.350,194.664 144.070,194.867 144.400 C 195.125 144.817,195.157 144.695,194.971 144.000 C 194.824 143.450,194.536 142.730,194.333 142.400 C 194.075 141.983,194.043 142.105,194.229 142.800 M231.400 144.000 L 232.021 145.200 229.954 145.200 C 228.469 145.200,227.729 145.003,227.322 144.500 C 226.811 143.868,226.798 143.888,227.192 144.700 C 227.599 145.540,232.400 146.167,232.400 145.380 C 232.400 145.000,231.189 142.800,230.979 142.800 C 230.869 142.800,231.059 143.340,231.400 144.000 M192.229 148.000 C 192.376 148.550,192.664 149.270,192.867 149.600 C 193.125 150.017,193.157 149.895,192.971 149.200 C 192.824 148.650,192.536 147.930,192.333 147.600 C 192.075 147.183,192.043 147.305,192.229 148.000 M246.800 153.800 C 247.995 155.010,249.063 156.000,249.173 156.000 C 249.283 156.000,248.395 155.010,247.200 153.800 C 246.005 152.590,244.937 151.600,244.827 151.600 C 244.717 151.600,245.605 152.590,246.800 153.800 M243.951 155.945 C 245.510 157.675,247.103 159.340,247.491 159.645 C 247.879 159.950,246.687 158.535,244.842 156.500 C 242.997 154.465,241.404 152.800,241.302 152.800 C 241.199 152.800,242.391 154.215,243.951 155.945 M205.640 155.200 C 205.615 155.866,207.047 159.200,207.358 159.200 C 207.466 159.200,207.226 158.435,206.824 157.500 C 206.422 156.565,205.997 155.530,205.878 155.200 C 205.687 154.667,205.661 154.667,205.640 155.200 M251.200 158.600 C 252.395 159.810,253.463 160.800,253.573 160.800 C 253.683 160.800,252.795 159.810,251.600 158.600 C 250.405 157.390,249.337 156.400,249.227 156.400 C 249.117 156.400,250.005 157.390,251.200 158.600 M229.700 157.096 L 232.000 157.240 231.390 158.420 C 231.054 159.069,230.869 159.600,230.979 159.600 C 231.189 159.600,232.400 157.400,232.400 157.020 C 232.400 156.899,231.275 156.834,229.900 156.876 L 227.400 156.951 229.700 157.096 M210.413 157.286 C 210.391 157.773,212.863 160.408,213.755 160.848 C 214.220 161.077,214.028 160.797,213.328 160.226 C 212.629 159.654,211.690 158.695,211.241 158.093 C 210.792 157.492,210.420 157.129,210.413 157.286 M226.026 159.307 C 224.887 160.711,224.842 160.829,225.763 160.000 C 226.720 159.138,227.856 157.586,227.514 157.607 C 227.451 157.611,226.782 158.376,226.026 159.307 M183.999 159.100 C 183.999 159.265,185.934 159.353,188.299 159.295 C 195.985 159.107,196.733 158.950,190.300 158.874 C 186.835 158.833,184.000 158.935,183.999 159.100 M208.347 160.624 C 208.790 161.187,209.658 162.031,210.276 162.499 C 210.894 162.968,210.590 162.509,209.600 161.479 C 207.597 159.395,207.130 159.076,208.347 160.624 M228.981 161.700 L 227.400 163.400 229.100 161.819 C 230.681 160.348,230.984 160.000,230.681 160.000 C 230.616 160.000,229.851 160.765,228.981 161.700 M249.583 162.100 C 250.564 163.145,251.419 164.000,251.483 164.000 C 251.784 164.000,251.466 163.641,249.700 161.983 L 247.800 160.200 249.583 162.100 M255.400 163.200 C 256.483 164.300,257.460 165.200,257.570 165.200 C 257.680 165.200,256.883 164.300,255.800 163.200 C 254.717 162.100,253.740 161.200,253.630 161.200 C 253.520 161.200,254.317 162.100,255.400 163.200 M218.100 162.287 C 218.705 162.378,219.695 162.378,220.300 162.287 C 220.905 162.195,220.410 162.120,219.200 162.120 C 217.990 162.120,217.495 162.195,218.100 162.287 M211.600 163.396 C 211.600 163.670,214.049 164.884,214.232 164.701 C 214.319 164.614,213.762 164.244,212.995 163.878 C 212.228 163.512,211.600 163.295,211.600 163.396 M224.800 164.232 C 223.590 164.751,222.870 165.177,223.200 165.179 C 223.911 165.183,227.200 163.736,227.200 163.420 C 227.200 163.299,227.155 163.220,227.100 163.245 C 227.045 163.269,226.010 163.714,224.800 164.232 M217.891 165.489 C 218.601 165.577,219.861 165.579,220.691 165.492 C 221.521 165.405,220.940 165.333,219.400 165.331 C 217.860 165.329,217.181 165.400,217.891 165.489 M205.233 178.551 C 205.642 178.921,208.800 180.395,208.800 180.216 C 208.800 179.989,205.781 178.400,205.349 178.400 C 205.194 178.400,205.142 178.468,205.233 178.551 M123.992 191.900 L 120.200 195.800 124.100 192.008 C 127.722 188.486,128.182 188.000,127.892 188.000 C 127.833 188.000,126.078 189.755,123.992 191.900 M171.300 188.296 C 172.565 188.375,174.635 188.375,175.900 188.296 C 177.165 188.216,176.130 188.151,173.600 188.151 C 171.070 188.151,170.035 188.216,171.300 188.296 M166.901 189.800 C 166.905 190.680,166.987 190.993,167.083 190.495 C 167.179 189.998,167.175 189.278,167.075 188.895 C 166.975 188.513,166.896 188.920,166.901 189.800 M223.200 191.000 C 224.395 192.210,225.463 193.200,225.573 193.200 C 225.683 193.200,224.795 192.210,223.600 191.000 C 222.405 189.790,221.337 188.800,221.227 188.800 C 221.117 188.800,222.005 189.790,223.200 191.000 M206.600 200.800 C 207.906 202.120,209.065 203.200,209.175 203.200 C 209.285 203.200,208.306 202.120,207.000 200.800 C 205.694 199.480,204.535 198.400,204.425 198.400 C 204.315 198.400,205.294 199.480,206.600 200.800 M137.600 202.200 C 136.628 203.190,135.923 204.000,136.033 204.000 C 136.143 204.000,137.028 203.190,138.000 202.200 C 138.972 201.210,139.677 200.400,139.567 200.400 C 139.457 200.400,138.572 201.210,137.600 202.200 M156.581 218.500 L 155.000 220.200 156.700 218.619 C 158.281 217.148,158.584 216.800,158.281 216.800 C 158.216 216.800,157.451 217.565,156.581 218.500 M220.174 238.400 C 220.174 244.010,220.230 246.305,220.299 243.500 C 220.368 240.695,220.368 236.105,220.299 233.300 C 220.230 230.495,220.174 232.790,220.174 238.400 M223.772 237.600 C 223.772 242.770,223.829 244.885,223.899 242.300 C 223.968 239.715,223.968 235.485,223.899 232.900 C 223.829 230.315,223.772 232.430,223.772 237.600 M246.980 242.400 C 246.980 250.210,247.034 253.405,247.099 249.500 C 247.165 245.595,247.165 239.205,247.099 235.300 C 247.034 231.395,246.980 234.590,246.980 242.400 M264.580 242.400 C 264.580 250.210,264.634 253.405,264.699 249.500 C 264.765 245.595,264.765 239.205,264.699 235.300 C 264.634 231.395,264.580 234.590,264.580 242.400 M281.780 242.400 C 281.780 250.210,281.834 253.405,281.899 249.500 C 281.965 245.595,281.965 239.205,281.899 235.300 C 281.834 231.395,281.780 234.590,281.780 242.400 M296.909 230.000 C 296.909 230.990,296.987 231.395,297.082 230.900 C 297.178 230.405,297.178 229.595,297.082 229.100 C 296.987 228.605,296.909 229.010,296.909 230.000 M304.039 228.600 C 304.039 228.820,304.651 230.170,305.400 231.600 C 306.149 233.030,306.761 234.020,306.761 233.800 C 306.761 233.580,306.149 232.230,305.400 230.800 C 304.651 229.370,304.039 228.380,304.039 228.600 M315.579 232.442 C 314.463 234.665,313.614 236.548,313.692 236.626 C 313.770 236.703,314.770 234.885,315.915 232.584 C 317.059 230.283,317.908 228.400,317.801 228.400 C 317.695 228.400,316.695 230.219,315.579 232.442 M318.600 234.400 C 317.824 235.940,317.280 237.200,317.390 237.200 C 317.500 237.200,318.224 235.940,319.000 234.400 C 319.776 232.860,320.320 231.600,320.210 231.600 C 320.100 231.600,319.376 232.860,318.600 234.400 M303.400 235.600 C 303.957 236.700,304.503 237.600,304.613 237.600 C 304.723 237.600,304.357 236.700,303.800 235.600 C 303.243 234.500,302.697 233.600,302.587 233.600 C 302.477 233.600,302.843 234.500,303.400 235.600 M103.720 239.600 C 103.720 240.810,103.795 241.305,103.887 240.700 C 103.978 240.095,103.978 239.105,103.887 238.500 C 103.795 237.895,103.720 238.390,103.720 239.600 M122.555 243.400 C 122.556 246.260,122.620 247.378,122.697 245.883 C 122.774 244.389,122.774 242.049,122.696 240.683 C 122.618 239.318,122.555 240.540,122.555 243.400 M295.600 242.188 L 295.600 243.576 290.500 243.701 L 285.400 243.826 290.700 243.913 L 296.000 244.000 296.000 242.400 C 296.000 241.520,295.910 240.800,295.800 240.800 C 295.690 240.800,295.600 241.425,295.600 242.188 M314.000 243.200 C 313.334 244.520,312.878 245.600,312.988 245.600 C 313.098 245.600,313.734 244.520,314.400 243.200 C 315.066 241.880,315.522 240.800,315.412 240.800 C 315.302 240.800,314.666 241.880,314.000 243.200 M307.493 243.300 C 308.504 245.218,308.619 245.885,308.822 251.000 L 309.043 256.600 309.122 251.289 C 309.196 246.228,307.933 241.200,306.588 241.200 C 306.477 241.200,306.885 242.145,307.493 243.300 M103.720 247.200 C 103.720 248.410,103.795 248.905,103.887 248.300 C 103.978 247.695,103.978 246.705,103.887 246.100 C 103.795 245.495,103.720 245.990,103.720 247.200 M237.293 247.600 C 237.293 248.370,237.375 248.685,237.476 248.300 C 237.576 247.915,237.576 247.285,237.476 246.900 C 237.375 246.515,237.293 246.830,237.293 247.600 M224.017 248.800 C 223.995 249.746,225.466 251.903,226.479 252.410 C 227.266 252.804,227.241 252.735,226.309 251.936 C 225.708 251.421,224.950 250.370,224.624 249.600 C 224.298 248.830,224.025 248.470,224.017 248.800 M236.316 250.417 C 235.948 251.059,235.051 251.946,234.323 252.390 C 233.596 252.834,233.211 253.198,233.469 253.199 C 234.097 253.201,236.312 251.312,236.841 250.323 C 237.522 249.051,237.051 249.136,236.316 250.417 M222.800 253.800 C 223.546 254.570,224.247 255.200,224.357 255.200 C 224.467 255.200,223.946 254.570,223.200 253.800 C 222.454 253.030,221.753 252.400,221.643 252.400 C 221.533 252.400,222.054 253.030,222.800 253.800 M229.705 253.487 C 230.314 253.579,231.214 253.577,231.705 253.482 C 232.197 253.387,231.700 253.311,230.600 253.314 C 229.500 253.317,229.097 253.395,229.705 253.487 M237.055 254.641 C 235.985 255.389,235.283 256.000,235.495 256.000 C 235.929 256.000,239.200 253.703,239.200 253.397 C 239.200 253.134,239.271 253.093,237.055 254.641 M255.477 253.499 L 260.353 253.624 260.509 255.112 L 260.666 256.600 260.733 254.900 L 260.800 253.200 255.700 253.286 L 250.600 253.373 255.477 253.499 M273.077 253.499 L 277.953 253.624 278.109 255.112 L 278.266 256.600 278.333 254.900 L 278.400 253.200 273.300 253.286 L 268.200 253.373 273.077 253.499 M291.077 253.499 L 296.753 253.622 296.909 255.111 L 297.066 256.600 297.133 254.900 L 297.200 253.200 291.300 253.288 L 285.400 253.376 291.077 253.499 M235.082 279.011 C 234.492 280.215,234.094 281.200,234.198 281.200 C 234.467 281.200,236.484 277.151,236.305 276.971 C 236.223 276.889,235.673 277.807,235.082 279.011 M137.800 284.400 C 139.550 286.160,141.071 287.600,141.181 287.600 C 141.291 287.600,139.950 286.160,138.200 284.400 C 136.450 282.640,134.929 281.200,134.819 281.200 C 134.709 281.200,136.050 282.640,137.800 284.400 M206.786 285.900 L 204.600 288.200 206.900 286.014 C 209.037 283.982,209.383 283.600,209.086 283.600 C 209.024 283.600,207.989 284.635,206.786 285.900 M223.392 295.300 L 219.800 299.000 223.500 295.408 C 226.936 292.072,227.382 291.600,227.092 291.600 C 227.032 291.600,225.367 293.265,223.392 295.300 M123.800 294.800 C 125.106 296.120,126.265 297.200,126.375 297.200 C 126.485 297.200,125.506 296.120,124.200 294.800 C 122.894 293.480,121.735 292.400,121.625 292.400 C 121.515 292.400,122.494 293.480,123.800 294.800 " stroke="none" fill="#e2e3e5" fill-rule="evenodd"></path><path id="path2" d="M148.400 131.047 L 148.400 176.093 149.300 175.898 C 149.795 175.791,151.730 175.250,153.600 174.696 C 157.130 173.651,163.707 172.400,165.670 172.400 L 166.800 172.400 166.800 129.200 L 166.800 86.000 157.600 86.000 L 148.400 86.000 148.400 131.047 M78.002 189.700 C 78.029 213.074,93.697 228.743,118.562 230.262 C 137.763 231.435,155.913 222.934,162.250 209.800 C 165.256 203.570,168.229 188.400,166.444 188.400 C 163.605 188.400,154.599 191.076,150.548 193.124 C 148.173 194.324,148.088 194.422,147.812 196.257 C 145.782 209.799,133.969 215.697,115.012 212.632 C 102.685 210.640,97.927 205.358,96.335 191.900 L 95.827 187.600 86.913 187.600 L 78.000 187.600 78.002 189.700 " stroke="none" fill="#2c548c" fill-rule="evenodd"></path><path id="path3" d="M214.004 138.061 C 205.146 141.555,202.599 154.560,209.445 161.340 C 215.665 167.499,227.436 166.074,231.242 158.700 L 232.016 157.200 229.835 157.200 C 228.015 157.200,227.612 157.331,227.404 157.989 C 226.237 161.665,218.941 163.528,214.551 161.271 C 208.183 157.996,206.972 147.551,212.393 142.654 C 216.566 138.884,223.784 139.362,226.715 143.601 C 227.742 145.086,227.913 145.170,229.910 145.185 L 232.021 145.200 231.388 143.976 C 228.461 138.317,220.352 135.558,214.004 138.061 M183.400 150.865 C 180.760 158.155,178.542 164.363,178.471 164.660 C 178.377 165.052,178.831 165.200,180.126 165.200 L 181.911 165.200 183.028 161.990 L 184.145 158.780 190.326 158.890 L 196.507 159.000 197.554 162.000 L 198.600 165.000 200.498 165.122 L 202.397 165.244 201.970 164.122 C 201.735 163.505,199.557 157.519,197.128 150.819 C 194.700 144.119,192.623 138.404,192.514 138.119 C 192.386 137.786,191.578 137.602,190.257 137.605 L 188.200 137.610 183.400 150.865 M237.600 151.400 L 237.600 165.200 239.200 165.200 L 240.800 165.200 240.800 159.000 C 240.800 155.590,240.960 152.800,241.156 152.800 C 241.352 152.800,244.007 155.582,247.056 158.982 L 252.600 165.163 254.985 165.182 L 257.370 165.200 255.563 163.300 C 250.164 157.625,244.800 151.648,244.800 151.308 C 244.800 150.982,251.463 143.418,255.729 138.900 L 256.957 137.600 254.716 137.600 L 252.476 137.600 246.981 143.800 C 243.958 147.210,241.331 150.000,241.143 150.000 C 240.954 150.000,240.800 147.210,240.800 143.800 L 240.800 137.600 239.200 137.600 L 237.600 137.600 237.600 151.400 M192.934 149.012 C 194.180 152.538,195.200 155.553,195.200 155.712 C 195.200 155.870,192.931 156.000,190.157 156.000 C 186.288 156.000,185.159 155.884,185.305 155.500 C 185.409 155.225,186.545 152.075,187.827 148.500 C 189.110 144.925,190.274 142.135,190.414 142.300 C 190.554 142.465,191.688 145.485,192.934 149.012 M220.400 238.654 C 220.400 250.079,220.569 250.988,223.190 253.620 C 227.838 258.288,236.721 257.201,239.800 251.588 L 241.000 249.400 241.135 239.100 L 241.270 228.800 239.454 228.800 L 237.638 228.800 237.519 239.172 C 237.407 248.922,237.351 249.609,236.575 250.647 C 234.366 253.603,230.546 254.451,227.209 252.726 C 223.959 251.045,223.819 250.501,223.670 238.900 L 223.539 228.800 221.970 228.800 L 220.400 228.800 220.400 238.654 M247.200 242.600 L 247.200 256.400 253.800 256.400 L 260.400 256.400 260.400 255.012 L 260.400 253.625 255.500 253.512 L 250.600 253.400 250.494 241.100 L 250.388 228.800 248.794 228.800 L 247.200 228.800 247.200 242.600 M264.800 242.600 L 264.800 256.400 271.400 256.400 L 278.000 256.400 278.000 255.012 L 278.000 253.625 273.100 253.512 L 268.200 253.400 268.094 241.100 L 267.988 228.800 266.394 228.800 L 264.800 228.800 264.800 242.600 M282.000 242.600 L 282.000 256.400 289.400 256.400 L 296.800 256.400 296.800 255.011 L 296.800 253.622 291.100 253.511 L 285.400 253.400 285.400 248.600 L 285.400 243.800 290.500 243.688 L 295.600 243.576 295.600 242.188 L 295.600 240.800 290.387 240.800 L 285.175 240.800 285.287 236.100 L 285.400 231.400 291.100 231.289 L 296.800 231.178 296.800 229.989 L 296.800 228.800 289.400 228.800 L 282.000 228.800 282.000 242.600 M300.400 228.967 C 300.400 229.058,302.380 232.903,304.800 237.511 L 309.200 245.888 309.200 251.144 L 309.200 256.400 310.800 256.400 L 312.400 256.400 312.400 251.345 L 312.400 246.290 316.253 238.845 C 318.372 234.750,320.457 230.815,320.886 230.100 L 321.665 228.800 319.705 228.800 L 317.745 228.800 314.423 235.600 C 312.596 239.340,310.986 242.400,310.845 242.400 C 310.704 242.400,309.121 239.340,307.328 235.600 L 304.067 228.800 302.233 228.800 C 301.225 228.800,300.400 228.875,300.400 228.967 " stroke="none" fill="#c3c4c4" fill-rule="evenodd"></path><path id="path4" d="M239.187 137.483 L 240.780 137.645 240.906 143.923 L 241.032 150.200 241.016 143.800 L 241.000 137.400 239.297 137.361 L 237.594 137.322 239.187 137.483 M253.700 137.487 C 254.305 137.578,255.295 137.578,255.900 137.487 C 256.505 137.395,256.010 137.320,254.800 137.320 C 253.590 137.320,253.095 137.395,253.700 137.487 M240.962 159.000 C 240.962 162.520,241.024 163.906,241.098 162.081 C 241.172 160.256,241.172 157.376,241.097 155.681 C 241.022 153.986,240.961 155.480,240.962 159.000 M167.505 172.283 C 168.002 172.379,168.722 172.375,169.105 172.275 C 169.487 172.175,169.080 172.096,168.200 172.101 C 167.320 172.105,167.007 172.187,167.505 172.283 M178.100 172.276 C 178.485 172.376,179.115 172.376,179.500 172.276 C 179.885 172.175,179.570 172.093,178.800 172.093 C 178.030 172.093,177.715 172.175,178.100 172.276 M227.000 214.000 L 216.200 214.220 227.100 214.310 C 234.160 214.368,238.000 214.259,238.000 214.000 C 238.000 213.780,237.955 213.641,237.900 213.690 C 237.845 213.740,232.940 213.879,227.000 214.000 M221.100 228.682 C 221.595 228.778,222.405 228.778,222.900 228.682 C 223.395 228.587,222.990 228.509,222.000 228.509 C 221.010 228.509,220.605 228.587,221.100 228.682 M238.505 228.687 C 239.114 228.779,240.014 228.777,240.505 228.682 C 240.997 228.587,240.500 228.511,239.400 228.514 C 238.300 228.517,237.897 228.595,238.505 228.687 M248.791 228.683 L 250.389 228.845 250.503 240.923 L 250.617 253.000 250.609 240.800 L 250.600 228.600 248.897 228.561 L 247.194 228.522 248.791 228.683 M266.391 228.683 L 267.989 228.845 268.103 240.923 L 268.217 253.000 268.209 240.800 L 268.200 228.600 266.497 228.561 L 264.794 228.522 266.391 228.683 M285.721 228.698 C 287.877 228.771,291.297 228.770,293.321 228.698 C 295.344 228.625,293.580 228.566,289.400 228.567 C 285.220 228.567,283.564 228.626,285.721 228.698 M301.305 228.687 C 301.914 228.779,302.814 228.777,303.305 228.682 C 303.797 228.587,303.300 228.511,302.200 228.514 C 301.100 228.517,300.697 228.595,301.305 228.687 M318.905 228.687 C 319.514 228.779,320.414 228.777,320.905 228.682 C 321.397 228.587,320.900 228.511,319.800 228.514 C 318.700 228.517,318.297 228.595,318.905 228.687 M285.373 231.726 C 285.262 232.015,285.230 234.220,285.301 236.626 L 285.430 241.000 285.515 236.311 L 285.600 231.622 291.300 231.499 L 297.000 231.376 291.287 231.288 C 286.874 231.220,285.529 231.320,285.373 231.726 M103.714 243.400 C 103.717 244.500,103.795 244.903,103.887 244.295 C 103.979 243.686,103.977 242.786,103.882 242.295 C 103.787 241.803,103.711 242.300,103.714 243.400 M285.353 248.600 C 285.353 251.240,285.418 252.268,285.497 250.884 C 285.575 249.501,285.574 247.341,285.495 246.084 C 285.416 244.828,285.352 245.960,285.353 248.600 M312.557 251.200 C 312.557 254.170,312.620 255.385,312.697 253.900 C 312.774 252.415,312.774 249.985,312.697 248.500 C 312.620 247.015,312.557 248.230,312.557 251.200 M220.000 272.681 C 229.496 272.965,238.001 272.974,238.000 272.700 C 238.000 272.535,233.095 272.438,227.100 272.484 C 221.105 272.530,217.910 272.619,220.000 272.681 M137.600 284.600 C 138.346 285.370,139.047 286.000,139.157 286.000 C 139.267 286.000,138.746 285.370,138.000 284.600 C 137.254 283.830,136.553 283.200,136.443 283.200 C 136.333 283.200,136.854 283.830,137.600 284.600 M171.700 298.694 C 172.745 298.776,174.455 298.776,175.500 298.694 C 176.545 298.612,175.690 298.544,173.600 298.544 C 171.510 298.544,170.655 298.612,171.700 298.694 M167.700 314.276 C 168.085 314.376,168.715 314.376,169.100 314.276 C 169.485 314.175,169.170 314.093,168.400 314.093 C 167.630 314.093,167.315 314.175,167.700 314.276 M178.100 314.276 C 178.485 314.376,179.115 314.376,179.500 314.276 C 179.885 314.175,179.570 314.093,178.800 314.093 C 178.030 314.093,177.715 314.175,178.100 314.276 " stroke="none" fill="#c0ccdc" fill-rule="evenodd"></path></g></svg>